<?xml version="1.0" encoding="UTF-8"?>
<svg width="155px" height="24px" viewBox="0 0 155 24" version="1.1" xmlns="http://www.w3.org/2000/svg" xmlns:xlink="http://www.w3.org/1999/xlink">
    <!-- Generator: Sketch 46.2 (44496) - http://www.bohemiancoding.com/sketch -->
    <title>sysdig-inspect-logo-white-155x24</title>
    <desc>Created with Sketch.</desc>
    <defs></defs>
    <g id="Page-1" stroke="none" stroke-width="1" fill="none" fill-rule="evenodd">
        <g id="sysdig-inspect-logo-white-155x24">
            <g id="logo" fill-rule="nonzero" fill="#FCFCFC">
                <path d="M12.242243,0.0201869159 C7.68455286,-0.0224570417 3.50219973,2.5397261 1.46996094,6.61947649 C-0.562277854,10.6992269 -0.0879791838,15.5810197 2.69158879,19.193271 L3.81308411,18.1054206 C4.12934579,17.7958879 4.96149533,17.8026168 4.96149533,17.8026168 L6.61906542,16.1719626 C7.44897196,15.3465421 6.02691589,13.9065421 6.02691589,13.9065421 L4.03738318,11.8878505 C11.8115888,4.23028037 17.4953271,6.5988785 17.4953271,6.5988785 C17.4953271,6.5988785 19.7629907,12.3140187 11.991028,19.9626168 L10.0037383,17.9439252 C10.0037383,17.9439252 8.58168224,16.4971963 7.74056075,17.3226168 L6.08299065,18.955514 C6.08299065,18.955514 6.08299065,19.7876636 5.76224299,20.0994393 L4.64074766,21.1962617 C8.70234841,24.4832469 14.4316453,24.7404654 18.7714525,21.8306637 C23.1112598,18.9208621 25.0488981,13.5230328 23.5504326,8.51748846 C22.0519671,3.51194415 17.4670596,0.066711704 12.242243,0.0201869159 Z" id="Shape"></path>
                <path d="M31.5252336,16.2706542 C31.8962827,16.2784522 32.2668907,16.2407888 32.628785,16.1585047 C32.8783918,16.1026737 33.1151146,15.9999162 33.3263551,15.8557009 C33.4883022,15.7444457 33.6145189,15.5886226 33.6897196,15.4071028 C33.7593974,15.2191372 33.7936206,15.0198819 33.7906542,14.8194393 C33.7863775,14.3541951 33.5420975,13.9241605 33.1446729,13.682243 C32.7125234,13.3831776 31.9708411,13.0564486 30.9196262,12.7020561 C30.4605607,12.5405607 30.002243,12.3551402 29.5446729,12.1457944 C29.0973291,11.9438653 28.681758,11.6778999 28.311028,11.3562617 C27.9395357,11.034248 27.6347297,10.6425723 27.4138318,10.2033645 C27.1709596,9.68860817 27.0533621,9.12367932 27.0706542,8.55476636 C27.0610899,7.95191088 27.1851838,7.35442161 27.4340187,6.80523364 C27.6728827,6.29078639 28.025722,5.83746452 28.4657944,5.47962617 C28.9452886,5.09766423 29.4945775,4.81273485 30.0829907,4.64074766 C30.7790765,4.43628755 31.5018616,4.33724482 32.2272897,4.34691589 C33.6694023,4.3166848 35.0958391,4.65072869 36.3745794,5.31813084 L35.4639252,7.80560748 C35.0441474,7.59158231 34.6075482,7.41229159 34.1585047,7.26953271 C33.5971145,7.10583066 33.0137358,7.03016546 32.4291589,7.04523364 C31.6740187,7.04523364 31.131215,7.14990654 30.8007477,7.35925234 C30.4814651,7.56258187 30.2950335,7.92090679 30.3117757,8.29906542 C30.3064783,8.53072387 30.3739409,8.75821401 30.5046729,8.94953271 C30.6431777,9.14087799 30.8185868,9.30255949 31.0205607,9.42504673 C31.2642204,9.57708679 31.5218374,9.7055198 31.7899065,9.80859813 C32.08,9.92373832 32.4,10.0418692 32.7499065,10.1629907 C33.4781308,10.4321495 34.1121495,10.6983178 34.6519626,10.9614953 C35.1471135,11.1936402 35.6015542,11.5041746 35.997757,11.8811215 C36.3521552,12.228001 36.6249163,12.6494017 36.7962617,13.1147664 C36.9843208,13.6683067 37.0731613,14.2507056 37.0586916,14.8351402 C37.0586916,16.1435514 36.6003738,17.1581308 35.6837383,17.8788785 C34.7671028,18.5996262 33.3846729,18.96 31.5364486,18.96 C30.9752093,18.9635925 30.4144595,18.9261093 29.8586916,18.8478505 C29.4115676,18.7842575 28.9688406,18.6928655 28.5330841,18.5742056 C28.1950825,18.4828638 27.8638209,18.3681963 27.5416822,18.231028 C27.3033491,18.1288444 27.0705093,18.0142962 26.8441121,17.8878505 L27.7413084,15.3801869 C28.2340616,15.639665 28.7528222,15.8464174 29.288972,15.9970093 C30.0178175,16.1929204 30.7706543,16.2850429 31.5252336,16.2706542 L31.5252336,16.2706542 Z" id="Shape"></path>
                <path d="M48,8.0388785 C47.3914019,10.088972 46.7558879,12.0104673 46.0934579,13.8033645 C45.431028,15.5962617 44.7080374,17.3360748 43.924486,19.0228037 C43.6799989,19.5591118 43.395846,20.076435 43.0743925,20.5704673 C42.8170839,20.9653246 42.5026348,21.3198358 42.1413084,21.6224299 C41.8040774,21.8988935 41.4152247,22.1055191 40.9973832,22.2302804 C40.5129241,22.3665044 40.0112158,22.4314847 39.5080374,22.4231776 C39.0686558,22.4262834 38.6302244,22.3819139 38.2003738,22.2908411 C37.8649048,22.221934 37.5361576,22.12361 37.2179439,21.9970093 L37.7428037,19.5902804 C38.012717,19.6880061 38.2903161,19.7630329 38.5727103,19.8145794 C38.8270622,19.8558462 39.08438,19.8761016 39.3420561,19.8751402 C39.7989014,19.9052958 40.2483407,19.7481945 40.5869159,19.44 C40.9122236,19.0928472 41.1633207,18.6830018 41.3248598,18.235514 C40.6370093,16.8897196 39.9491589,15.3757009 39.2613084,13.6934579 C38.5145274,11.8441863 37.866144,9.95668661 37.3188785,8.0388785 L40.5151402,8.0388785 C40.6497196,8.56523364 40.808972,9.13495327 40.9928972,9.74803738 C41.1768224,10.3611215 41.3697196,10.9816822 41.5715888,11.6097196 C41.7749533,12.2362617 41.9813084,12.8463551 42.1906542,13.44 C42.4,14.0336449 42.5996262,14.5727103 42.7895327,15.0571963 C42.9659813,14.571215 43.1484112,14.0321495 43.3368224,13.44 C43.5252336,12.8478505 43.7114019,12.237757 43.8953271,11.6097196 C44.077757,10.9831776 44.2534579,10.3626168 44.4224299,9.74803738 C44.5914019,9.13345794 44.7409346,8.56373832 44.871028,8.0388785 L48,8.0388785 Z" id="Shape"></path>
                <path d="M52.2280374,16.5151402 C52.6259035,16.5395717 53.0246576,16.4846763 53.4011215,16.3536449 C53.6357465,16.2368218 53.7727137,15.9861629 53.7442991,15.7256075 C53.721285,15.4476548 53.5496441,15.2039247 53.2957009,15.0885981 C52.8659508,14.8441344 52.4156356,14.6377399 51.9499065,14.4717757 C51.5125117,14.311208 51.0835487,14.1285431 50.6646729,13.924486 C50.3044326,13.7534029 49.9735964,13.5262843 49.684486,13.2515888 C49.412066,12.9853979 49.198165,12.6653103 49.0564486,12.3117757 C48.8976323,11.8922056 48.8214672,11.445878 48.8321495,10.9973832 C48.7990221,10.0731756 49.2173203,9.19056642 49.9536449,8.63102804 C50.7013084,8.05084112 51.7196262,7.76074766 53.0085981,7.76074766 C53.6332402,7.75896174 54.2566271,7.81679402 54.8702804,7.93345794 C55.3469039,8.01622388 55.8158121,8.13851514 56.2721495,8.29906542 L55.7472897,10.6452336 C55.3720298,10.5171969 54.990173,10.4093785 54.6033645,10.322243 C54.1480535,10.2234084 53.6830848,10.1760087 53.2171963,10.1809346 C52.2736449,10.1809346 51.8018692,10.4441121 51.8018692,10.9704673 C51.7998935,11.0811279 51.8205001,11.1910296 51.8624299,11.2934579 C51.9170563,11.4048268 52.0007519,11.4993718 52.1046729,11.5671028 C52.2616453,11.6757583 52.427461,11.7710461 52.6003738,11.8519626 C52.8097196,11.9536449 53.0758879,12.0657944 53.3988785,12.1884112 C53.9614598,12.3900299 54.5086878,12.6321596 55.0362617,12.9128972 C55.4178515,13.1113513 55.764165,13.3712758 56.0613084,13.682243 C56.3026885,13.9449217 56.482048,14.2584174 56.5861682,14.5996262 C56.6935118,14.9804465 56.7448908,15.3748559 56.7386916,15.7704673 C56.7386916,16.8171963 56.3439252,17.611215 55.5543925,18.1525234 C54.7648598,18.6938318 53.6493458,18.9629907 52.2078505,18.96 C51.4150746,18.9767384 50.6232714,18.8953733 49.8504673,18.717757 C49.4062114,18.6146449 48.969946,18.4797174 48.5450467,18.3140187 L49.0497196,15.8669159 C49.5589358,16.0688478 50.084125,16.2279052 50.6198131,16.3424299 C51.1482901,16.4565969 51.6873696,16.5144897 52.2280374,16.5151402 Z" id="Shape"></path>
                <path d="M67.9446729,18.3342056 C67.675514,18.4149533 67.3652336,18.4897196 67.0138318,18.5585047 C66.6624299,18.6272897 66.2953271,18.6915888 65.9125234,18.7514019 C65.5282243,18.8052336 65.1371963,18.8493458 64.7394393,18.8837383 C64.3416822,18.9181308 63.9603738,18.9353271 63.595514,18.9353271 C62.7968362,18.9485027 62.0022487,18.8186036 61.2493458,18.5517757 C60.5948115,18.3169175 60.0003984,17.9400473 59.508785,17.4482243 C59.0269909,16.9537483 58.6581431,16.360684 58.4276636,15.7099065 C58.1684148,14.9723585 58.0416033,14.1947843 58.0530841,13.4130841 C58.0423928,12.622196 58.1512859,11.8342336 58.3760748,11.0758879 C58.5660538,10.4301414 58.8824618,9.82858501 59.3069159,9.30616822 C59.7069685,8.82001144 60.2166152,8.43566246 60.7940187,8.1846729 C61.4329885,7.91805442 62.1204817,7.7874307 62.8127103,7.8011215 C63.1900308,7.79670556 63.5665286,7.83736731 63.9342056,7.92224299 C64.2769718,8.00745196 64.611688,8.12227612 64.9345794,8.26542056 L64.9345794,3.46766355 L67.9491589,2.98317757 L67.9446729,18.3342056 Z M61.1282243,13.2785047 C61.1282243,14.2085981 61.3375701,14.9562617 61.7562617,15.5214953 C62.1749533,16.086729 62.795514,16.3700935 63.6179439,16.3715888 C63.8871028,16.3715888 64.1368224,16.3611215 64.3671028,16.3401869 C64.5973832,16.3192523 64.7857944,16.2953271 64.9323364,16.2684112 L64.9323364,10.791028 C64.7032688,10.6529871 64.4543986,10.5508671 64.1943925,10.4882243 C63.8944655,10.4078116 63.5852859,10.3670904 63.2747664,10.3671028 C61.8437383,10.3656075 61.1282243,11.3360748 61.1282243,13.2785047 Z" id="Shape"></path>
                <path d="M73.6485981,4.96373832 C73.6793241,5.45946993 73.4858274,5.94280006 73.1214953,6.28037383 C72.3981055,6.91429078 71.3170347,6.91429078 70.5936449,6.28037383 C70.2288642,5.94719959 70.0322178,5.46833678 70.0575701,4.97495327 C70.0325368,4.48162431 70.2291295,4.0028924 70.5936449,3.66953271 C71.3170347,3.03561576 72.3981055,3.03561576 73.1214953,3.66953271 C73.4796045,4.00199052 73.6725297,4.47568333 73.6485981,4.96373832 L73.6485981,4.96373832 Z M73.3659813,18.6773832 L70.3514019,18.6773832 L70.3514019,8.0388785 L73.3659813,8.0388785 L73.3659813,18.6773832 Z" id="Shape"></path>
                <path d="M84.955514,17.3428037 C84.955514,19.0818692 84.5136449,20.3730841 83.6299065,21.2164486 C82.7461682,22.0598131 81.3809346,22.4814953 79.5342056,22.4814953 C78.8829259,22.4808 78.2329611,22.4230087 77.5917757,22.308785 C76.9830851,22.2052072 76.3832056,22.0552374 75.7973832,21.8601869 L76.322243,19.3323364 C76.8038433,19.5251502 77.301459,19.6752605 77.8093458,19.7809346 C78.3922408,19.8947014 78.9852062,19.9488123 79.5790654,19.9424299 C80.4418692,19.9424299 81.0519626,19.753271 81.4093458,19.3749533 C81.7732859,18.9795665 81.9660043,18.4562434 81.9454206,17.9192523 L81.9454206,17.526729 C81.6251913,17.6743879 81.2897256,17.7864605 80.9450467,17.8609346 C80.5762429,17.9379377 80.2003004,17.975532 79.8235514,17.9730841 C78.3536449,17.9730841 77.2276636,17.5379439 76.4456075,16.6676636 C75.6635514,15.7973832 75.2702804,14.5779439 75.2657944,13.0093458 C75.2562443,12.2821413 75.3793798,11.5592903 75.6291589,10.8762617 C75.8586415,10.2560822 76.220711,9.69345842 76.6900935,9.22766355 C77.1774181,8.75590099 77.7602398,8.39412324 78.3992523,8.16672897 C79.1328674,7.90726777 79.9068021,7.78043058 80.6848598,7.79214953 C81.0482243,7.79214953 81.4220561,7.80934579 81.8063551,7.84373832 C82.1906542,7.87813084 82.5719626,7.92224299 82.9502804,7.97607477 C83.3271028,8.02990654 83.6874766,8.09420561 84.0314019,8.16897196 C84.3753271,8.24373832 84.6818692,8.31850467 84.951028,8.39327103 L84.955514,17.3428037 Z M78.3409346,13.0093458 C78.3409346,14.6945794 79.0220561,15.5371963 80.3842991,15.5371963 C80.678749,15.5395109 80.9719516,15.4987044 81.2545794,15.4160748 C81.494,15.3480357 81.7249903,15.2532319 81.9431776,15.1334579 L81.9431776,10.317757 C81.7936449,10.2908411 81.6186916,10.2669159 81.4183178,10.2459813 C81.2179439,10.2250467 80.9816822,10.2145794 80.7095327,10.2145794 C79.9140187,10.2145794 79.3203738,10.477757 78.9285981,11.0041121 C78.5182376,11.5900532 78.3117617,12.2945929 78.3409346,13.0093458 Z" id="Shape"></path>
                <polygon id="Shape" points="93.2186916 18.6796262 93.2186916 5.18803738 94.3715888 5.18803738 94.3715888 18.6796262"></polygon>
                <path d="M104.281121,18.6796262 L104.281121,12.0650467 C104.281121,10.1831776 103.330093,9.61794393 101.914766,9.61794393 C100.660935,9.61794393 99.366729,10.4074766 98.7386916,11.2979439 L98.7386916,18.6796262 L97.686729,18.6796262 L97.686729,8.90915888 L98.7386916,8.90915888 L98.7386916,10.3850467 C99.4474766,9.53495327 100.842617,8.6646729 102.257944,8.6646729 C104.240748,8.6646729 105.333084,9.63588785 105.333084,11.8407477 L105.333084,18.6796262 L104.281121,18.6796262 Z" id="Shape"></path>
                <path d="M107.76,17.3629907 L108.388037,16.5936449 C109.173296,17.5188244 110.330529,18.0452131 111.543925,18.0291589 C113.181308,18.0291589 114.152523,17.1790654 114.152523,16.0463551 C114.152523,13.3771963 107.984299,14.8934579 107.984299,11.3742056 C107.984299,9.87813084 109.258318,8.6646729 111.463178,8.6646729 C113.140935,8.6646729 114.253458,9.3128972 114.962243,10.1001869 L114.374579,10.8493458 C113.807103,10.08 112.757383,9.55514019 111.458692,9.55514019 C109.94243,9.55514019 109.031776,10.324486 109.031776,11.3360748 C109.031776,13.7831776 115.179813,12.2871028 115.179813,16.0463551 C115.179813,17.6164486 113.966355,18.9173832 111.519252,18.9173832 C109.944673,18.9218692 108.731215,18.4553271 107.76,17.3629907 Z" id="Shape"></path>
                <path d="M118.945794,17.1005607 L118.945794,22.4007477 L117.893832,22.4007477 L117.893832,8.90915888 L118.945794,8.90915888 L118.945794,10.4456075 C119.725227,9.3389332 120.990368,8.67588255 122.343925,8.6646729 C124.952523,8.6646729 126.713271,10.6474766 126.713271,13.7831776 C126.713271,16.9188785 124.952523,18.9218692 122.343925,18.9218692 C120.981897,18.9055689 119.713494,18.2257381 118.945794,17.1005607 L118.945794,17.1005607 Z M125.580561,13.7831776 C125.580561,11.4168224 124.346916,9.61570093 122.162243,9.61570093 C120.869795,9.63431874 119.668331,10.2844829 118.945794,11.3562617 L118.945794,16.1899065 C119.663237,17.2726922 120.86377,17.9374226 122.162243,17.9708411 C124.346916,17.9708411 125.580561,16.1495327 125.580561,13.7831776 Z" id="Shape"></path>
                <path d="M128.817196,13.7831776 C128.817196,10.9525234 130.8,8.6646729 133.509533,8.6646729 C136.483738,8.6646729 138.121121,11.0108411 138.121121,13.8437383 L138.121121,14.1308411 L129.949907,14.1308411 C130.050841,16.2549533 131.466168,18.0134579 133.762991,18.0134579 C134.97026,18.034302 136.130494,17.5457822 136.959252,16.6676636 L137.506542,17.3562617 C136.517575,18.3994435 135.130231,18.9707025 133.693458,18.9263551 C130.840374,18.9218692 128.817196,16.797757 128.817196,13.7831776 Z M133.489346,9.57757009 C131.183551,9.57757009 130.030654,11.5962617 129.949907,13.2986916 L137.046729,13.2986916 C137.028785,11.6388785 135.936449,9.57757009 133.489346,9.57757009 Z" id="Shape"></path>
                <path d="M140.285607,13.7831776 C140.285607,10.9323364 142.14729,8.6646729 145.018318,8.6646729 C146.718505,8.6646729 147.687477,9.33757009 148.477009,10.322243 L147.748037,10.9704673 C147.148826,10.0928531 146.14079,9.58459942 145.078879,9.6246729 C142.793271,9.6246729 141.398131,11.4459813 141.398131,13.7921495 C141.398131,16.1383178 142.793271,17.9798131 145.078879,17.9798131 C146.147602,18.0088672 147.156378,17.487116 147.75028,16.5981308 L148.485981,17.2418692 C147.696449,18.2534579 146.725234,18.9196262 145.02729,18.9196262 C142.14729,18.9218692 140.285607,16.6362617 140.285607,13.7831776 Z" id="Shape"></path>
                <path d="M151.02729,16.797757 L151.02729,9.84448598 L149.410093,9.84448598 L149.410093,8.90915888 L151.02729,8.90915888 L151.02729,6.24 L152.099439,6.24 L152.099439,8.90915888 L154.082243,8.90915888 L154.082243,9.84 L152.097196,9.84 L152.097196,16.6362617 C152.097196,17.4257944 152.420187,17.9820561 153.108785,17.9820561 C153.523915,17.975012 153.918291,17.7992836 154.201121,17.4953271 L154.60486,18.3050467 C154.161708,18.7306385 153.56052,18.9511012 152.94729,18.9128972 C151.653084,18.9218692 151.02729,18.1323364 151.02729,16.797757 Z" id="Shape"></path>
            </g>
            <rect id="Rectangle" x="0" y="0" width="155" height="24"></rect>
        </g>
    </g>
</svg>