<svg fill="#000000" height="24" viewBox="0 0 24 24" width="24" xmlns="http://www.w3.org/2000/svg">
    <g transform="translate(4.000000, 4.000000)">
        <path d="M0,3.88 L0,2.27333333 C0.308217993,2.24978801 0.599479086,2.1229485 0.826666667,1.91333333 C0.973333333,1.78666667 1.08,1.62 1.22,1.48666667 C1.77451459,0.923310065 2.54396628,0.624753098 3.33333333,0.666666667 C3.99665682,0.698448847 4.62425455,0.976588753 5.09333333,1.44666667 C5.23333333,1.58 5.36,1.73333333 5.5,1.87333333 C5.75312025,2.13867235 6.11022473,2.27911089 6.47628195,2.2572759 C6.84233918,2.23544091 7.18021683,2.0535473 7.4,1.76 C7.65284806,1.43984742 7.97399568,1.18019615 8.34,1 C8.66128769,0.82138107 9.01474089,0.708094788 9.38,0.666666667 C10.1566551,0.603089234 10.9234011,0.874847319 11.4866667,1.41333333 C11.66,1.57333333 11.82,1.74666667 11.9866667,1.91333333 C12.2303518,2.1435862 12.558447,2.26274828 12.8930969,2.242543 C13.2277469,2.22233772 13.5391215,2.06456614 13.7533333,1.80666667 C13.9843226,1.52296891 14.2588435,1.27770019 14.5666667,1.08 C15.0050128,0.830759201 15.4962491,0.689100361 16,0.666666667 C16,1.20666667 16,1.72666667 16,2.24 C15.833669,2.29092998 15.6710589,2.35330097 15.5133333,2.42666667 C15.3534364,2.50462096 15.2089027,2.61076288 15.0866667,2.74 C14.7708616,3.1233182 14.3749129,3.4327953 13.9266667,3.64666667 C13.630594,3.79545831 13.3046568,3.87523316 12.9733333,3.88 C12.5713076,3.90034828 12.1694484,3.83677734 11.7933333,3.69333333 C11.4315009,3.53486985 11.1033675,3.30857097 10.8266667,3.02666667 L10.5333333,2.71333333 C10.308138,2.43181144 9.96717671,2.26792685 9.60666667,2.26792685 C9.24615662,2.26792685 8.90519529,2.43181144 8.68,2.71333333 C8.3634692,3.07608576 7.98405161,3.37871645 7.56,3.60666667 C7.37244681,3.71281108 7.16668068,3.78290724 6.95333333,3.81333333 C6.49340657,3.89494899 6.02074816,3.8675485 5.57333333,3.73333333 C5.00186501,3.51709649 4.49323154,3.16196952 4.09333333,2.7 C3.70860895,2.23409039 3.02719483,2.14927919 2.54,2.50666667 C2.34332623,2.65187559 2.16234574,2.81721579 2,3 C1.59912555,3.41624123 1.08813642,3.70988656 0.526666667,3.84666667 C0.35251774,3.87402317 0.176208325,3.88518199 2.07889261e-16,3.88 L0,3.88 Z"></path>
        <path d="M16,6.44 L16,8 L15.6733333,8.05333333 C15.3716481,8.10316292 15.098797,8.26212835 14.9066667,8.5 C14.647146,8.79297307 14.340752,9.04079177 14,9.23333333 C13.0199258,9.79907961 11.7938041,9.70923448 10.9066667,9.00666667 C10.7186712,8.8441317 10.5405748,8.67048775 10.3733333,8.48666667 C10.2148575,8.30420597 10.0097698,8.16824894 9.78,8.09333333 C9.28721254,7.94183656 8.75249681,8.11829276 8.44666667,8.53333333 C8.08746988,8.97971791 7.60540833,9.31113523 7.06,9.48666667 C6.65457321,9.61223666 6.22551817,9.64190536 5.80666667,9.57333333 C5.11368071,9.45851362 4.48592307,9.09607242 4.04,8.55333333 C3.88133774,8.34714394 3.66581879,8.19187759 3.42,8.10666667 C2.91364439,7.92854743 2.35023019,8.09838042 2.02666667,8.52666667 C1.77019437,8.83265383 1.46083623,9.09007593 1.11333333,9.28666667 C0.78315513,9.46137721 0.419509488,9.56365254 0.0466666667,9.58666667 C-0.0142136977,9.04615335 -0.0142136977,8.50051332 0.0466666667,7.96 C0.432631521,7.84842943 0.771889045,7.61445872 1.01333333,7.29333333 C1.3315572,6.92801417 1.74810252,6.661888 2.21333333,6.52666667 C2.61562266,6.39721102 3.04291948,6.36522088 3.46,6.43333333 C3.9475462,6.50238569 4.40782913,6.70030735 4.79333333,7.00666667 C4.95333333,7.13333333 5.08666667,7.29333333 5.23333333,7.44 C5.42193291,7.66312705 5.66893457,7.82933378 5.94666667,7.92 C6.43242064,8.05956448 6.95481771,7.90023337 7.28,7.51333333 C7.46863738,7.30394081 7.67373713,7.10998779 7.89333333,6.93333333 C8.49163106,6.49513897 9.24351987,6.32162617 9.97333333,6.45333333 C10.4249925,6.52100113 10.8505959,6.70734637 11.2066667,6.99333333 C11.3995832,7.14798557 11.5780907,7.31979904 11.74,7.50666667 C12.0882049,7.9393931 12.6796822,8.0913322 13.1933333,7.88 C13.4008902,7.80163233 13.5814393,7.66506319 13.7133333,7.48666667 C14.0515009,7.04613463 14.5169953,6.72028855 15.0466667,6.55333333 C15.3419819,6.4790942 15.6430604,6.43002955 15.9466667,6.40666667 C15.8933333,6.4 15.9333333,6.42666667 16,6.44 Z"></path>
        <path d="M16,12.16 L16,13.6866667 C15.7933333,13.7666667 15.5933333,13.8333333 15.4066667,13.9266667 C15.2823113,13.9889533 15.1730905,14.0776951 15.0866667,14.1866667 C14.7444423,14.6304175 14.2814981,14.966052 13.7533333,15.1533333 C13.256775,15.3498292 12.7109162,15.3848202 12.1933333,15.2533333 C11.5948035,15.0788644 11.0538695,14.7473984 10.6266667,14.2933333 C10.5077912,14.163286 10.3808753,14.0408233 10.2466667,13.9266667 C9.68836459,13.5954637 8.9698011,13.7426394 8.58666667,14.2666667 C8.32556459,14.5992067 7.98673938,14.862483 7.6,15.0333333 C7.2342354,15.2270735 6.82722666,15.329969 6.41333333,15.3333333 C5.71180794,15.336418 5.03608545,15.0689942 4.52666667,14.5866667 C4.36666667,14.4466667 4.23333333,14.28 4.08666667,14.1266667 C3.84223744,13.8713291 3.50000105,13.733139 3.14680678,13.7471647 C2.79361252,13.7611905 2.46341193,13.9260839 2.24,14.2 C1.90565919,14.6186618 1.46954847,14.9445972 0.973333333,15.1466667 C0.66689612,15.2807827 0.334312292,15.3445659 0,15.3333333 L0,13.7333333 L0.06,13.7333333 C0.435144158,13.6826274 0.775233377,13.4862378 1.00666667,13.1866667 C1.28043964,12.8438414 1.63253254,12.5717696 2.03333333,12.3933333 C2.3081864,12.239231 2.61822951,12.1588494 2.93333333,12.16 C3.09333333,12.16 3.25333333,12.16 3.42,12.16 C3.74261491,12.1689774 4.05826546,12.2558956 4.34,12.4133333 C4.77006225,12.6146098 5.15369899,12.9029048 5.46666667,13.26 C5.69551453,13.5495354 6.04427768,13.7184243 6.41333333,13.7184243 C6.78238899,13.7184243 7.13115214,13.5495354 7.36,13.26 C7.67412311,12.8920315 8.05677423,12.5886276 8.48666667,12.3666667 C8.66780957,12.2659263 8.86728229,12.2024577 9.07333333,12.18 C9.51834159,12.1101009 9.97320878,12.1373929 10.4066667,12.26 C10.9853956,12.4720954 11.4949525,12.8386997 11.88,13.32 C12.2012658,13.6588688 12.6835941,13.7922788 13.1333333,13.6666667 C13.3952989,13.5915752 13.6279646,13.4380159 13.8,13.2266667 C14.0941165,12.8521755 14.476694,12.5566516 14.9133333,12.3666667 C15.2367445,12.1637457 15.6246774,12.089967 16,12.16 Z"></path>
    </g>
</svg>