<svg fill="#000000" height="24" viewBox="0 0 24 24" width="24" xmlns="http://www.w3.org/2000/svg">
    <g id="shape" transform="translate(5.000000, 4.000000)">
        <path d="M7.29333333,13.6666667 C7.18,13.52 7.12,13.4333333 7.04,13.3533333 L1.86,8.16666667 C1.74719797,8.05009956 1.62694492,7.94098106 1.5,7.84 C1.20507004,7.62109381 0.801596632,7.62109381 0.506666667,7.84 C0.216890903,8.04571827 0.0864205883,8.41050262 0.18,8.75333333 C0.246886044,8.95814754 0.36918292,9.14043911 0.533333333,9.28 L6.53333333,15.28 L6.69333333,15.44 C6.87052753,15.6130311 7.11285485,15.7026922 7.36,15.6866667 C7.6180469,15.6698795 7.85840878,15.5496985 8.02666667,15.3533333 L14.1266667,9.24666667 C14.204895,9.17274361 14.2742508,9.08996412 14.3333333,9 C14.5584424,8.66053508 14.5099286,8.20889205 14.2178587,7.92498057 C13.9257889,7.64106909 13.472953,7.60536659 13.14,7.84 C13.0272774,7.92363437 12.9224004,8.01735425 12.8266667,8.12 L7.57333333,13.3333333 C7.48666667,13.4133333 7.42,13.5133333 7.29333333,13.6666667 Z" id="Shape"></path>
        <path d="M7.29333333,6.32 C7.16666667,6.17333333 7.1,6.07333333 7.01333333,5.99333333 L1.78666667,0.76 C1.69554194,0.668570117 1.59986491,0.581793271 1.5,0.5 C1.16236072,0.231600161 0.676919601,0.259923013 0.372784328,0.565766911 C0.0686490555,0.871610809 0.0430461841,1.35720298 0.313333333,1.69333333 C0.371717758,1.77177797 0.436374597,1.84535299 0.506666667,1.91333333 L6.54,7.94666667 C6.62206764,8.03191153 6.71128225,8.10997432 6.80666667,8.18 C7.09463487,8.39011811 7.48536513,8.39011811 7.77333333,8.18 C7.87827052,8.10176331 7.97639844,8.01478629 8.06666667,7.92 L14,2 C14.0933333,1.90666667 14.18,1.81333333 14.26,1.71333333 C14.3878595,1.56386344 14.4503136,1.369295 14.4333333,1.17333333 C14.437555,0.832539721 14.2305352,0.524664008 13.9133333,0.4 C13.6169914,0.277648636 13.2770758,0.331726118 13.0333333,0.54 C12.9513181,0.611067465 12.8734144,0.686745405 12.8,0.766666667 L7.54666667,6 C7.47333333,6.09333333 7.40666667,6.18666667 7.29333333,6.32 Z" id="Shape"></path>
    </g>
</svg>